<svg width="25" height="24" viewBox="0 0 25 24" fill="none" xmlns="http://www.w3.org/2000/svg">
<path d="M6.2786 20.4C6.3286 20.35 6.9286 19.7 7.8786 18.7C9.2786 17.25 15.3786 10.75 15.4786 10.65C15.9286 10.2 18.0786 11.85 19.8786 10.05C21.0286 8.9 21.4286 7.45 20.9286 5.7L18.6286 8C18.6286 8 17.7786 8 16.9286 7.2C16.1286 6.35 16.1286 5.5 16.1286 5.5L18.4286 3.25C16.7786 2.75 15.1786 3.15 14.0286 4.3C12.2786 6.05 13.8286 8.25 13.3786 8.7C13.2786 8.75 4.7286 16.9 4.6286 17C3.7786 17.8 3.7286 17.85 3.6786 17.85C2.9786 18.6 2.9286 19.8 3.6286 20.5C4.3286 21.2 5.5286 21.15 6.2786 20.4ZM5.1286 18.25C5.5286 18.25 5.8786 18.6 5.8786 19C5.8786 19.4 5.5286 19.75 5.1286 19.75C4.7286 19.75 4.3786 19.4 4.3786 19C4.3786 18.6 4.6786 18.25 5.1286 18.25Z" fill="#607D8B"/>
<path d="M20.1289 18.5L7.37891 5.85L6.12891 4L3.82891 3L3.12891 3.7L4.12891 6L5.97891 7.25L18.7289 19.9L20.1289 18.5Z" fill="#B0BEC5"/>
<path d="M13.379 10.4C12.329 7.90001 11.729 9.25001 10.529 10.4C9.37898 11.55 8.02898 12.15 10.529 13.25C12.979 14.3 15.679 19.1 16.729 20.2C17.779 21.25 19.079 21.35 20.279 20.2C21.429 19.05 21.329 17.75 20.279 16.65C19.229 15.6 14.429 12.9 13.379 10.4Z" fill="#FFC107"/>
<path d="M10.5292 10.4C11.6792 9.25001 12.2792 7.90001 13.3792 10.4L10.5292 13.25C8.07919 12.2 9.37919 11.6 10.5292 10.4Z" fill="#FF9800"/>
</svg>
