<svg width="229" height="84" viewBox="0 0 229 84" fill="none" xmlns="http://www.w3.org/2000/svg">
<path d="M29.584 26.408C29.584 28.328 27.952 29.96 26.032 29.96H0.4V35H26.032C30.064 35 32.032 32.6 34.624 29.96V23.768C34.624 18.968 30.688 15.608 26.032 15.608H8.992C7.216 15.608 5.728 14.216 5.488 12.488H0.4C0.784 17.048 4.336 20.648 8.992 20.648H26.032C27.904 20.648 29.584 21.752 29.584 23.768V26.408ZM8.992 0.823999C4.192 0.823999 0.544 4.664 0.4 9.416H5.44C5.488 7.496 7.024 5.864 8.992 5.864H34.624V0.823999H8.992ZM59.0789 35V5.864H73.6709V0.823999H39.4469V5.864H54.0389V35H59.0789ZM77.9733 24.92H92.6613L96.9333 35H102.405L87.8133 0.823999H82.7733L68.1813 35H73.6533L77.9733 24.92ZM79.7973 20.6L85.3173 7.736L90.7893 20.6H79.7973ZM113.143 35L123.511 22.28L134.407 35H141.031L126.727 18.296L141.031 0.823999H134.551L111.799 28.76V0.823999H106.759V35H113.143ZM150.424 0.823999H145.384V35H150.424V0.823999ZM160.268 35V8.264L184.748 35H189.452V0.823999H184.412V27.224L160.268 0.823999H155.228V35H160.268ZM228.451 9.32C228.451 4.616 224.611 0.823999 219.907 0.823999H202.915C198.163 0.823999 194.275 4.664 194.275 9.416V26.408C194.275 31.16 198.115 35 202.867 35H219.907C224.659 35 228.499 31.112 228.499 26.36V15.608H211.411V20.648H223.459V26.36C223.459 28.328 221.875 30.008 219.907 30.008H202.867C200.899 30.008 199.315 28.376 199.315 26.408V9.464C199.315 7.448 200.899 5.864 202.915 5.864H219.907C221.875 5.864 223.459 7.448 223.459 9.416H228.451V9.32ZM29.92 84H34.624V49.824H29.584V76.224L5.44 49.824H0.4V54.864H3.28L29.92 84ZM5.44 64.608H0.4V84H5.44V64.608ZM68.6309 69.648V64.608H39.4469V84H44.4869V69.648H68.6309ZM39.4469 49.824V54.864H73.7189V49.824H39.4469ZM93.1326 84H98.1726V49.824H78.5406V54.864H93.1326V84ZM112.765 49.824H103.213V54.864H112.765V49.824Z" fill="white"/>
</svg>
